HIERARCHY
ROOT Hips
{
	OFFSET -0.001795 -0.223333 0.028219
	CHANNELS 6 Xposition Yposition Zposition Zrotation Yrotation Xrotation 
	JOINT LeftUpLeg
	{
		OFFSET 0.069520 -0.091406 -0.006815
		CHANNELS 3 Zrotation Yrotation Xrotation
		JOINT LeftLeg
		{
			OFFSET 0.034277 -0.375199 -0.004496
			CHANNELS 3 Zrotation Yrotation Xrotation
			JOINT LeftFoot
			{
				OFFSET -0.013596 -0.397961 -0.043693
				CHANNELS 3 Zrotation Yrotation Xrotation
				JOINT LeftToe
				{
					OFFSET 0.026358 -0.055791 0.119288
					CHANNELS 3 Zrotation Yrotation Xrotation
					End Site
					{
						OFFSET 0.000000 0.000000 0.000000
					}
				}
			}
		}
	}
	JOINT RightUpLeg
	{
		OFFSET -0.067670 -0.090522 -0.004320
		CHANNELS 3 Zrotation Yrotation Xrotation
		JOINT RightLeg
		{
			OFFSET -0.038290 -0.382569 -0.008850
			CHANNELS 3 Zrotation Yrotation Xrotation
			JOINT RightFoot
			{
				OFFSET 0.015774 -0.398415 -0.042312
				CHANNELS 3 Zrotation Yrotation Xrotation
				JOINT RightToe
				{
					OFFSET -0.025372 -0.048144 0.123348
					CHANNELS 3 Zrotation Yrotation Xrotation
					End Site
					{
						OFFSET 0.000000 0.000000 0.000000
					}
				}
			}
		}
	}
	JOINT Spine
	{
		OFFSET -0.002533 0.108963 -0.026696
		CHANNELS 3 Zrotation Yrotation Xrotation
		JOINT Spine1
		{
			OFFSET 0.005487 0.135180 0.001092
			CHANNELS 3 Zrotation Yrotation Xrotation
			JOINT Spine2
			{
				OFFSET 0.001457 0.052922 0.025425
				CHANNELS 3 Zrotation Yrotation Xrotation
				JOINT Neck
				{
					OFFSET -0.002778 0.213870 -0.042857
					CHANNELS 3 Zrotation Yrotation Xrotation
					JOINT Head
					{
						OFFSET 0.005152 0.064970 0.051349
						CHANNELS 3 Zrotation Yrotation Xrotation
						End Site
						{
							OFFSET 0.000000 0.000000 0.000000
						}
					}
				}
				JOINT LeftShoulder
				{
					OFFSET 0.078845 0.121749 -0.034090
					CHANNELS 3 Zrotation Yrotation Xrotation
					JOINT LeftArm
					{
						OFFSET 0.090977 0.030469 -0.008868
						CHANNELS 3 Zrotation Yrotation Xrotation
						JOINT LeftForeArm
						{
							OFFSET 0.259612 -0.012772 -0.027456
							CHANNELS 3 Zrotation Yrotation Xrotation
							JOINT LeftHand
							{
								OFFSET 0.249234 0.008986 -0.001171
								CHANNELS 3 Zrotation Yrotation Xrotation
								End Site
								{
									OFFSET 0.000000 0.000000 0.000000
								}
							}
						}
					}
				}
				JOINT RightShoulder
				{
					OFFSET -0.081759 0.118833 -0.038615
					CHANNELS 3 Zrotation Yrotation Xrotation
					JOINT RightArm
					{
						OFFSET -0.096012 0.032551 -0.009143
						CHANNELS 3 Zrotation Yrotation Xrotation
						JOINT RightForeArm
						{
							OFFSET -0.253742 -0.013329 -0.021401
							CHANNELS 3 Zrotation Yrotation Xrotation
							JOINT RightHand
							{
								OFFSET -0.255298 0.007772 -0.005559
								CHANNELS 3 Zrotation Yrotation Xrotation
								End Site
								{
									OFFSET 0.000000 0.000000 0.000000
								}
							}
						}
					}
				}
			}
		}
	}
}
MOTION
Frames: 18
Frame Time: 0.050000
0.000000 0.938215 0.000000 0.257191 -1.591455 5.815068 5.218930 -0.275725 -3.303270 -0.074486 0.137691 -3.874964 1.774063 6.306318 8.100199 0.000000 0.000000 0.000000 -4.468857 0.516087 -5.437615 -2.029585 0.185734 -0.322466 -0.122830 -3.449032 6.674272 0.000000 0.000000 0.000000 5.593651 0.281552 -4.822532 -2.384792 1.118136 -2.917522 -4.338876 3.821028 7.029540 4.534446 -1.940519 -10.988152 0.000000 0.000000 0.000000 -15.988720 -2.424842 -1.021547 -58.230412 -6.009702 -4.223711 -4.764303 -18.806132 1.397213 0.000000 0.000000 0.000000 12.522506 -5.699577 -3.244624 66.645673 6.562453 -2.578612 0.995473 23.592548 1.226780 0.000000 0.000000 0.000000 
0.000029 0.937745 0.000358 0.240569 -2.012751 6.377054 5.164767 -0.242173 -2.484954 0.220201 0.193293 -5.964277 1.858518 6.582075 8.723063 0.000000 0.000000 0.000000 -4.629094 0.574050 -6.235425 -2.046888 0.192909 -0.190847 0.247213 -2.941961 7.277592 0.000000 0.000000 0.000000 7.003903 0.360123 -5.464623 -3.043270 1.400983 -3.192810 -5.615646 4.371538 7.316774 3.680893 -1.134490 -12.352461 0.000000 0.000000 0.000000 -16.620938 -1.793422 -1.520486 -56.604894 -6.220514 -3.989340 -5.424254 -18.727977 1.481469 0.000000 0.000000 0.000000 12.246528 -6.920361 -3.726923 68.345258 6.202142 -2.746121 0.350490 23.128268 1.114837 0.000000 0.000000 0.000000 
0.000028 0.937694 0.000431 0.773992 -1.678988 6.386569 4.757979 -0.271159 -3.028194 0.220844 0.137778 -4.484075 1.526919 5.791204 7.860738 0.000000 0.000000 0.000000 -5.252673 0.593752 -6.785906 -1.927348 0.227226 0.593745 -0.638174 -4.564238 6.668633 0.000000 0.000000 0.000000 6.668919 0.361667 -5.572037 -3.092801 1.417307 -3.925019 -5.881466 3.869192 7.893258 2.903708 -0.697445 -12.010709 0.000000 0.000000 0.000000 -16.710839 -1.939305 -1.369035 -56.371517 -6.596754 -3.859733 -4.672699 -17.647668 1.298415 0.000000 0.000000 0.000000 13.410328 -6.394363 -3.633290 66.630184 6.044337 -2.980976 1.449065 22.910126 1.290268 0.000000 0.000000 0.000000 
-0.000099 0.937393 0.000522 1.110814 -1.418547 6.679401 4.820410 -0.286593 -3.224551 -0.174698 0.176396 -4.805638 1.247075 5.364781 8.037220 0.000000 0.000000 0.000000 -5.575600 0.626876 -7.499962 -2.123205 0.258276 0.757132 -0.869178 -5.091826 6.816472 0.000000 0.000000 0.000000 6.892234 0.385272 -5.843298 -3.590020 1.637473 -3.610234 -6.107098 3.453172 7.342451 1.911208 -0.146357 -11.159050 0.000000 0.000000 0.000000 -16.560425 -1.711264 -1.437716 -56.633632 -6.940564 -3.655222 -3.663954 -17.502410 1.136629 0.000000 0.000000 0.000000 12.332042 -6.774140 -3.738215 67.372792 5.265877 -3.355288 2.265596 23.978170 1.501979 0.000000 0.000000 0.000000 
-0.000319 0.937450 0.000509 1.523579 -1.017743 6.715766 4.274317 -0.304840 -3.471309 0.047627 0.160025 -4.770488 1.061894 5.086119 8.088340 0.000000 0.000000 0.000000 -5.870632 0.627655 -7.755079 -2.437069 0.309339 1.014542 -1.338012 -5.970992 6.557491 0.000000 0.000000 0.000000 6.529489 0.360897 -5.725865 -3.337794 1.529574 -3.761170 -6.555930 3.253953 7.423150 1.401429 0.260612 -11.717598 0.000000 0.000000 0.000000 -16.680728 -1.721019 -1.468156 -55.969888 -7.374042 -3.405375 -4.064615 -17.213774 1.174754 0.000000 0.000000 0.000000 12.233864 -7.057839 -3.849096 67.228465 4.833656 -3.595437 2.843227 24.234742 1.639955 0.000000 0.000000 0.000000 
-0.000606 0.937578 0.000513 1.776674 -0.711698 7.022218 4.244586 -0.324581 -3.733687 -0.280490 0.182720 -4.803240 1.007403 5.004167 8.051302 0.000000 0.000000 0.000000 -5.984024 0.636712 -8.005931 -2.786379 0.332020 0.750779 -1.553053 -6.513678 6.887266 0.000000 0.000000 0.000000 6.585147 0.378227 -5.984341 -3.560105 1.624885 -3.903301 -6.766775 3.041511 7.467703 0.821115 0.645958 -11.738446 0.000000 0.000000 0.000000 -16.760936 -1.636077 -1.519268 -55.429220 -7.656556 -3.230434 -3.981492 -16.973045 1.145812 0.000000 0.000000 0.000000 11.726107 -7.198096 -3.859808 67.691838 4.284833 -3.904718 3.070626 24.352248 1.692180 0.000000 0.000000 0.000000 
-0.000919 0.937768 0.000469 1.971120 -0.512319 7.054064 4.080150 -0.339386 -3.955665 -0.388014 0.187981 -4.753238 1.028026 5.179224 8.443383 0.000000 0.000000 0.000000 -6.052193 0.636691 -8.102504 -2.893352 0.352316 0.872077 -1.628767 -6.577855 6.636944 0.000000 0.000000 0.000000 6.559250 0.367416 -5.909800 -3.632518 1.659174 -3.794298 -6.928988 2.773446 7.436554 0.666441 0.784632 -12.278835 0.000000 0.000000 0.000000 -16.737829 -1.504369 -1.553113 -55.179151 -7.484018 -3.292775 -4.204467 -17.298943 1.204770 0.000000 0.000000 0.000000 11.517930 -7.318585 -3.911111 67.901433 3.500842 -4.375653 3.657793 25.179876 1.872141 0.000000 0.000000 0.000000 
-0.001269 0.937997 0.000414 2.062373 -0.213681 7.215382 3.963745 -0.362607 -4.291651 -0.478430 0.185051 -4.471139 1.066264 5.201533 8.207872 0.000000 0.000000 0.000000 -6.106172 0.644233 -8.346087 -2.827122 0.355043 1.010123 -1.863235 -6.966575 6.347729 0.000000 0.000000 0.000000 6.684668 0.376165 -6.039122 -3.669289 1.674253 -3.981512 -7.279461 2.764903 7.617569 0.291314 1.034602 -12.113986 0.000000 0.000000 0.000000 -16.471812 -1.646639 -1.486045 -54.875011 -7.258097 -3.392753 -4.474878 -18.007107 1.290401 0.000000 0.000000 0.000000 11.424994 -7.597650 -4.004828 68.146204 2.745768 -4.815986 3.993632 25.806918 2.014851 0.000000 0.000000 0.000000 
-0.001617 0.938247 0.000339 2.217237 -0.048736 7.332442 3.738217 -0.386294 -4.635588 -0.490055 0.176684 -4.177780 1.145887 5.335533 8.136009 0.000000 0.000000 0.000000 -6.222289 0.648838 -8.558106 -2.741588 0.356176 1.166922 -1.915574 -6.982162 6.069001 0.000000 0.000000 0.000000 6.769094 0.382171 -6.125232 -3.730907 1.698396 -4.228924 -7.399689 2.789434 7.907192 0.058953 1.220885 -12.374436 0.000000 0.000000 0.000000 -16.234637 -1.558132 -1.514530 -54.855325 -7.099762 -3.495542 -4.898856 -18.374807 1.382166 0.000000 0.000000 0.000000 11.246137 -7.691786 -4.010259 68.160970 2.109899 -5.199529 4.360540 26.234943 2.145423 0.000000 0.000000 0.000000 
-0.001967 0.938543 0.000308 2.421091 0.216153 7.410879 3.527352 -0.404160 -4.860250 -0.479307 0.167627 -3.908600 1.207791 5.405809 7.931463 0.000000 0.000000 0.000000 -6.332388 0.646133 -8.661115 -2.686071 0.348703 1.132345 -2.074207 -7.253001 5.889929 0.000000 0.000000 0.000000 6.888208 0.384281 -6.166467 -3.911780 1.774085 -4.456286 -7.527390 2.897345 8.261177 -0.242232 1.464015 -12.633411 0.000000 0.000000 0.000000 -16.058467 -1.833949 -1.398324 -54.811972 -7.014638 -3.562771 -4.970240 -19.010196 1.435527 0.000000 0.000000 0.000000 11.170065 -7.909170 -4.069004 68.298345 1.698483 -5.447127 4.479048 26.760587 2.247584 0.000000 0.000000 0.000000 
-0.002282 0.938464 0.000292 2.495553 0.367318 7.446856 3.484834 -0.406963 -4.881444 -0.470568 0.166479 -3.897108 1.218414 5.431453 7.911188 0.000000 0.000000 0.000000 -6.373355 0.646274 -8.751554 -2.634440 0.356375 1.341187 -2.263863 -7.606453 5.724968 0.000000 0.000000 0.000000 7.044647 0.393938 -6.254232 -3.899704 1.771358 -4.375031 -7.711430 2.936617 8.256621 -0.389120 1.577370 -12.684066 0.000000 0.000000 0.000000 -16.013102 -1.931958 -1.375843 -54.894716 -6.910690 -3.614777 -5.142035 -19.458167 1.493013 0.000000 0.000000 0.000000 10.994275 -7.928046 -4.040232 68.368788 1.379086 -5.611806 4.869671 27.179993 2.386090 0.000000 0.000000 0.000000 
-0.002580 0.938358 0.000299 2.547077 0.698987 7.557534 3.627470 -0.419603 -5.075069 -0.559706 0.168434 -3.759500 1.196320 5.385434 7.800236 0.000000 0.000000 0.000000 -6.417349 0.644572 -8.845589 -2.664854 0.368444 1.457761 -2.390662 -7.866496 5.747168 0.000000 0.000000 0.000000 7.086684 0.401326 -6.374108 -3.864593 1.758969 -4.343520 -7.734303 2.929716 8.276278 -0.258226 1.520958 -12.828434 0.000000 0.000000 0.000000 -16.065466 -2.131885 -1.324449 -55.131459 -6.814781 -3.669630 -4.928526 -19.822724 1.476887 0.000000 0.000000 0.000000 10.907200 -7.995108 -4.041067 68.505030 1.195781 -5.695435 4.882565 27.737948 2.462681 0.000000 0.000000 0.000000 
-0.002899 0.938242 0.000271 2.538774 0.894535 7.592191 3.663293 -0.429686 -5.229856 -0.595549 0.164827 -3.553888 1.218750 5.405769 7.688023 0.000000 0.000000 0.000000 -6.329846 0.652066 -9.012360 -2.738427 0.398134 1.782425 -2.336108 -7.696979 5.614463 0.000000 0.000000 0.000000 7.128909 0.407494 -6.454356 -3.713752 1.696498 -4.400885 -7.819544 3.083947 8.351873 -0.026386 1.403328 -12.913786 0.000000 0.000000 0.000000 -16.063595 -2.294515 -1.300038 -55.333296 -6.827944 -3.682479 -4.876533 -19.889017 1.464161 0.000000 0.000000 0.000000 10.921095 -7.953752 -3.991408 68.649504 1.312910 -5.605140 4.629717 27.908500 2.442131 0.000000 0.000000 0.000000 
-0.003261 0.938133 0.000195 2.497849 1.024070 7.552552 3.712243 -0.438902 -5.393693 -0.584350 0.156600 -3.300275 1.318530 5.491876 7.363384 0.000000 0.000000 0.000000 -6.240088 0.657272 -9.117122 -2.745269 0.412499 1.988964 -2.221478 -7.373669 5.389017 0.000000 0.000000 0.000000 7.092611 0.412634 -6.509309 -3.598598 1.649662 -4.360414 -7.753939 3.166089 8.390072 0.393149 1.140886 -12.856402 0.000000 0.000000 0.000000 -15.911925 -2.567839 -1.176680 -55.725540 -6.806216 -3.726907 -4.556993 -19.820117 1.399198 0.000000 0.000000 0.000000 10.905604 -7.795263 -3.897376 68.822186 1.484228 -5.493601 4.266757 28.180492 2.398555 0.000000 0.000000 0.000000 
-0.003670 0.938006 0.000065 2.459041 1.135517 7.501480 3.781435 -0.448287 -5.568136 -0.583053 0.148368 -3.020938 1.322114 5.466969 7.237498 0.000000 0.000000 0.000000 -6.163027 0.655336 -9.064466 -2.919957 0.432313 1.956873 -2.139316 -7.206762 5.462392 0.000000 0.000000 0.000000 7.071905 0.414741 -6.533489 -3.516259 1.616271 -4.343102 -7.702853 3.231507 8.371281 0.504618 1.064254 -12.692352 0.000000 0.000000 0.000000 -15.855065 -2.814108 -1.075193 -55.927125 -6.847945 -3.720733 -4.476140 -19.463510 1.356663 0.000000 0.000000 0.000000 10.855130 -7.507790 -3.742628 69.051313 1.914957 -5.229430 3.762136 28.178482 2.288614 0.000000 0.000000 0.000000 
-0.004122 0.937826 -0.000119 2.401092 1.247847 7.385918 3.895653 -0.451447 -5.661664 -0.619243 0.141503 -2.683966 1.317208 5.376788 6.959810 0.000000 0.000000 0.000000 -6.057309 0.653690 -9.010564 -3.104106 0.461113 2.044378 -1.916175 -6.673678 5.349634 0.000000 0.000000 0.000000 6.824373 0.392462 -6.344285 -3.292074 1.523827 -4.183734 -7.573039 3.216595 8.210202 1.350802 0.484432 -12.399774 0.000000 0.000000 0.000000 -15.833716 -3.017406 -0.987321 -56.201585 -6.912986 -3.695702 -4.322824 -19.439335 1.326462 0.000000 0.000000 0.000000 10.690696 -7.177607 -3.568523 69.193965 2.297667 -4.978302 3.740798 28.367250 2.300512 0.000000 0.000000 0.000000 
-0.004652 0.937835 -0.000360 2.258277 1.401915 7.223600 4.143252 -0.448072 -5.681924 -0.792668 0.146314 -2.352369 1.349182 5.346998 6.661273 0.000000 0.000000 0.000000 -5.876547 0.643748 -8.734668 -3.204470 0.460221 1.833664 -1.746795 -6.320666 5.457088 0.000000 0.000000 0.000000 6.737535 0.370818 -6.119394 -3.151134 1.466634 -4.020338 -7.424473 3.118152 8.145401 1.888116 0.114609 -12.294265 0.000000 0.000000 0.000000 -15.883253 -3.179620 -0.907913 -56.311829 -6.915816 -3.697650 -4.502451 -19.635380 1.371657 0.000000 0.000000 0.000000 10.839330 -6.822275 -3.420555 69.084406 2.765525 -4.706931 3.753175 28.430218 2.305503 0.000000 0.000000 0.000000 
-0.005183 0.937633 -0.000667 2.091639 1.434825 7.220922 4.403535 -0.455403 -5.895007 -0.769926 0.132103 -1.901738 1.383191 5.347189 6.467600 0.000000 0.000000 0.000000 -5.692521 0.652478 -8.768492 -3.345842 0.488408 1.994272 -1.515892 -5.745526 5.261566 0.000000 0.000000 0.000000 6.565518 0.346017 -5.896288 -2.852084 1.339278 -3.874980 -7.341397 3.141488 7.901637 3.001838 -0.647008 -12.051421 0.000000 0.000000 0.000000 -15.611188 -3.227280 -0.866058 -56.608514 -6.599368 -3.856261 -4.972467 -20.144134 1.483524 0.000000 0.000000 0.000000 10.640982 -6.748006 -3.365366 69.371519 3.012591 -4.523351 3.893945 28.789940 2.373231 0.000000 0.000000 0.000000 
